
        <svg xmlns="http://www.w3.org/2000/svg" xmlns:xlink="http://www.w3.org/1999/xlink" version="1.1" width="1438.6363636363635" 
        height="3136.3636363636365" viewBox="0 0 1438.6363636363635 3136.3636363636365">
			
			<g transform="scale(6.818181818181818) translate(10, 10)">
				<defs id="SvgjsDefs4603"></defs><g id="SvgjsG4604" featureKey="rootContainer" transform="matrix(1,0,0,1,0,0)" fill="#c2181a"><path xmlns="http://www.w3.org/2000/svg" fill-rule="evenodd" d=" M0,0 H191 V440 H0,0 z M2,2 H189 V438 H2,2 z M6,6 H185 V434 H6 z M8,8 H183 V432 H6,8 z "></path></g><g id="SvgjsG4605" featureKey="symbolFeature-0" transform="matrix(2.05,0,0,2.05,96,50)" fill="#353336"></g><g id="SvgjsG4606" featureKey="nameFeature-0" transform="matrix(8.262051005957295,0,0,8.262051005957295,49.999998030173536,-24.517883679174417)" fill="#f25203"><path d="M10.96 40.08 l-4.08 0 l-2.2 -6.04 l-0.88 0 l0 6.04 l-3.8 0 l0 -28.64 l5.96 0 c2.64 0 4.76 2.12 4.76 4.76 l0 13.08 c0 1.72 -0.88 3.2 -2.24 4.04 z M3.8 15.239999999999998 l0 15 l2.16 0 c0.52 0 0.96 -0.44 0.96 -0.96 l0 -13.08 c0 -0.52 -0.44 -0.96 -0.96 -0.96 l-2.16 0 z"></path></g><g id="SvgjsG4607" featureKey="sloganFeature-0" transform="matrix(5.5553001643164786,0,0,5.5553001643164786,41.949856060513184,279.2066312593296)" fill="#1ebff7"><path d="M17.567 12.0424 c0 1.0081 -0.32878 1.759 -0.8114 2.2982 c0.48524 0.53376 0.8113 1.2642 0.8113 2.2318 c0 2.523 -2.0564 3.4388 -3.4388 3.4388 l-12.499 0 l0 -11.408 l12.237 0 c1.4875 0 3.7004 0.9158 3.7004 3.4388 z M14.778 17.4818 c0.21816 -0.12072 0.44116 -0.32318 0.44102 -0.90964 c0 -0.47164 -0.15969 -0.72696 -0.56946 -0.91072 c-0.3725 -0.16701 -0.77926 -0.18049 -0.78304 -0.18049 l-9.8895 0 l0 2.1822 l10.141 0 c0.1024 -0.0033984 0.40832 -0.041972 0.66036 -0.18139 z M14.778 12.952 c0.21816 -0.12072 0.44116 -0.32304 0.44116 -0.90964 c0 -0.47164 -0.15969 -0.72696 -0.56946 -0.91072 c-0.3725 -0.16701 -0.77926 -0.18049 -0.78304 -0.18049 l-9.8895 0 l0 2.1822 l10.14 0 c0.1024 -0.0033984 0.40832 -0.041972 0.66036 -0.18139 z"></path></g>
			</g>
		</svg>
	