<svg id="svg" version="1.1" xmlns="http://www.w3.org/2000/svg" xmlns:xlink="http://www.w3.org/1999/xlink" width="400" height="300" viewBox="0, 0, 400,300"><g id="svgg"><path id="path0" d="M0.000 150.000 L 0.000 300.000 200.000 300.000 L 400.000 300.000 400.000 150.000 L 400.000 0.000 200.000 0.000 L 0.000 0.000 0.000 150.000 M199.900 59.477 C 200.450 59.738,201.458 60.404,202.140 60.957 C 203.624 62.161,204.557 62.524,205.406 62.228 L 206.000 62.021 206.028 63.360 C 206.140 68.727,205.731 69.027,198.200 69.111 C 186.198 69.244,180.236 71.217,165.600 79.898 C 163.345 81.236,160.305 83.037,158.845 83.901 C 152.529 87.639,139.505 100.789,135.031 107.947 C 130.246 115.600,129.139 119.646,127.302 136.179 L 126.005 147.857 125.010 149.997 C 123.466 153.319,123.482 152.920,124.588 160.600 C 125.640 167.913,125.621 167.577,124.968 167.120 C 123.547 166.125,122.636 167.911,123.601 169.801 C 124.200 170.976,125.362 171.252,125.726 170.305 C 126.017 169.547,125.998 169.512,128.426 175.474 C 132.167 184.662,134.438 187.418,150.700 202.502 C 153.890 205.460,157.827 209.168,159.449 210.741 C 161.505 212.733,162.535 213.598,162.849 213.593 C 164.221 213.571,166.716 212.653,166.932 212.090 C 167.130 211.574,167.400 211.783,167.399 212.450 C 167.398 213.339,166.745 214.337,165.901 214.740 L 165.200 215.074 166.550 215.867 C 171.619 218.841,175.739 220.085,182.200 220.595 C 188.047 221.056,194.382 222.072,200.450 223.521 L 202.600 224.035 204.750 223.526 C 206.832 223.033,209.986 222.558,212.926 222.293 C 214.284 222.170,214.393 222.122,215.226 221.270 C 215.707 220.778,216.393 220.194,216.750 219.972 C 217.309 219.624,217.402 219.451,217.414 218.734 C 217.435 217.516,217.639 217.066,217.984 217.481 C 218.634 218.264,218.824 217.286,218.307 215.819 C 217.845 214.510,219.170 215.710,220.420 217.732 C 220.828 218.392,220.898 218.432,221.088 218.113 C 221.898 216.753,222.665 216.403,222.980 217.250 C 223.113 217.607,223.178 217.441,223.293 216.450 C 223.448 215.123,223.738 214.699,224.088 215.289 C 224.821 216.528,224.916 216.548,225.351 215.565 C 225.872 214.386,226.021 214.308,227.741 214.304 L 229.182 214.300 229.241 215.300 C 229.328 216.775,229.926 216.783,231.618 215.331 L 232.889 214.240 233.317 214.948 C 234.117 216.274,235.213 216.516,236.804 215.717 C 240.786 213.717,256.746 202.257,270.775 191.324 C 271.004 191.145,271.030 191.324,270.927 192.405 L 270.805 193.700 271.330 192.200 C 271.958 190.405,271.921 190.454,272.406 190.758 C 273.395 191.375,274.146 190.862,275.708 188.502 C 277.259 186.158,282.072 181.594,281.700 182.821 C 279.369 190.503,272.823 202.093,266.525 209.691 C 264.184 212.514,264.038 212.741,263.919 213.756 C 263.624 216.267,262.589 217.198,260.092 217.199 C 257.406 217.201,256.194 218.045,256.886 219.432 C 257.291 220.244,257.175 220.342,256.446 219.803 C 255.484 219.091,254.537 219.089,252.350 219.792 C 250.047 220.532,250.018 220.607,251.401 222.159 C 252.433 223.317,253.200 224.957,253.200 226.008 C 253.200 226.846,253.069 226.777,251.575 225.150 L 250.243 223.700 249.484 224.100 C 248.444 224.647,241.948 231.127,241.426 232.137 C 241.302 232.377,241.200 233.297,241.200 234.181 L 241.200 235.788 239.241 235.744 C 236.295 235.678,235.800 236.133,235.800 238.913 C 235.800 240.984,235.447 240.951,233.271 238.676 L 231.623 236.951 230.748 237.082 C 229.000 237.345,225.677 238.173,224.728 238.584 C 223.773 238.997,223.759 239.017,223.890 239.717 C 224.140 241.050,222.380 241.536,220.800 240.571 C 216.901 238.189,213.846 237.396,211.209 238.080 C 210.206 238.340,209.998 238.326,208.230 237.877 C 202.698 236.474,195.964 236.329,186.406 237.406 C 184.484 237.623,182.796 237.800,182.656 237.800 C 182.474 237.800,182.400 237.422,182.400 236.500 C 182.400 235.115,182.336 235.015,181.772 235.525 C 181.157 236.082,180.513 235.894,178.314 234.514 C 173.258 231.340,165.576 227.600,164.112 227.600 C 161.048 227.600,157.705 226.463,155.184 224.564 C 152.556 222.584,151.209 222.215,146.700 222.242 C 139.620 222.284,135.228 217.574,133.214 207.776 C 132.812 205.822,131.412 204.200,130.128 204.200 C 129.924 204.200,129.707 203.836,129.505 203.156 C 128.413 199.478,125.767 192.927,121.445 183.200 C 116.327 171.681,116.408 171.925,116.403 167.925 L 116.400 165.350 117.000 165.470 C 118.643 165.799,118.943 165.064,118.399 162.044 C 117.511 157.114,116.011 152.822,113.073 146.803 L 110.976 142.507 111.283 140.803 C 111.452 139.867,111.911 136.985,112.303 134.400 C 114.849 117.585,116.296 114.526,126.000 105.439 C 131.614 100.181,132.566 98.971,133.771 95.553 C 134.697 92.927,134.542 93.116,140.931 86.793 C 151.868 75.969,151.651 76.112,156.898 76.308 L 160.741 76.451 161.585 74.707 C 163.559 70.628,167.007 68.506,171.441 68.638 C 173.904 68.712,173.989 68.667,177.462 65.422 C 180.615 62.476,181.352 62.482,181.103 65.450 C 180.950 67.273,180.855 67.225,182.440 66.131 C 185.133 64.274,187.886 62.995,194.600 60.479 C 199.125 58.784,198.632 58.877,199.900 59.477 M235.600 65.090 C 244.637 66.458,255.131 71.901,262.010 78.787 L 264.721 81.500 273.855 96.121 C 278.880 104.163,283.034 110.868,283.087 111.021 C 283.633 112.594,285.198 128.247,285.199 132.150 C 285.200 135.662,285.417 135.763,287.262 133.114 C 287.949 132.126,289.113 131.641,288.631 132.543 C 287.714 134.255,286.205 141.296,285.696 146.229 C 285.180 151.236,285.188 151.186,284.951 150.600 C 284.422 149.293,284.662 141.077,285.319 138.022 C 285.414 137.579,285.382 137.590,284.893 138.172 C 283.800 139.471,282.824 138.931,282.615 136.913 L 282.482 135.629 280.691 133.941 C 278.557 131.930,277.055 129.898,275.453 126.853 L 274.271 124.606 274.624 123.253 C 275.631 119.393,274.659 115.813,272.113 114.002 C 269.297 111.999,268.509 110.895,267.043 106.900 C 266.048 104.185,265.600 102.078,265.600 100.106 L 265.600 98.596 263.981 99.409 C 260.677 101.071,261.556 101.432,251.673 94.357 C 240.509 86.367,235.577 83.061,229.900 79.765 L 227.300 78.255 225.363 78.125 C 217.037 77.562,210.448 72.067,213.532 68.256 C 214.715 66.794,218.652 66.047,220.937 66.850 L 221.774 67.144 222.017 66.560 C 222.337 65.786,223.332 65.051,224.200 64.948 C 226.078 64.723,233.816 64.820,235.600 65.090 M176.384 118.408 C 186.402 119.436,192.200 126.399,192.200 137.404 C 192.200 146.130,188.437 151.913,180.943 154.703 C 180.417 154.899,180.012 155.119,180.043 155.191 C 180.074 155.263,183.138 161.231,186.850 168.452 C 190.563 175.674,193.600 181.632,193.600 181.691 C 193.600 181.751,191.035 181.800,187.900 181.800 L 182.201 181.800 175.800 169.000 L 169.399 156.200 163.100 156.200 L 156.800 156.200 156.800 169.000 L 156.800 181.800 151.700 181.800 L 146.600 181.800 146.600 150.000 L 146.600 118.200 160.479 118.200 C 168.651 118.200,175.191 118.285,176.384 118.408 M236.599 118.407 C 245.614 119.356,250.827 125.230,250.881 134.500 C 250.928 142.429,247.729 146.639,240.550 148.096 C 239.880 148.232,239.820 148.600,240.468 148.600 C 242.312 148.600,246.086 150.140,248.048 151.694 C 255.885 157.899,254.647 172.898,245.800 178.933 C 241.690 181.736,242.168 181.678,222.650 181.753 L 206.000 181.817 206.000 150.009 L 206.000 118.200 220.350 118.203 C 228.489 118.205,235.522 118.293,236.599 118.407 M216.400 136.091 L 216.400 145.000 225.050 144.997 C 235.623 144.993,236.493 144.841,238.401 142.668 C 241.068 139.631,240.753 131.553,237.868 129.014 C 235.932 127.310,235.919 127.308,225.550 127.241 L 216.400 127.181 216.400 136.091 M156.800 137.400 L 156.800 147.400 165.650 147.397 C 176.669 147.393,177.399 147.264,179.535 144.948 C 182.413 141.825,182.078 131.625,179.017 129.218 C 176.809 127.480,176.222 127.400,165.690 127.400 L 156.800 127.400 156.800 137.400 M216.400 163.195 L 216.400 172.820 226.450 172.760 C 238.407 172.687,239.035 172.557,240.966 169.749 C 243.124 166.612,242.874 158.790,240.535 156.252 C 238.307 153.836,237.838 153.751,226.150 153.652 L 216.400 153.570 216.400 163.195 M125.200 174.757 C 125.200 174.852,125.474 175.434,125.808 176.051 C 126.157 176.695,126.467 177.627,126.536 178.237 C 126.697 179.661,127.053 180.302,128.025 180.916 C 129.076 181.580,129.107 181.511,128.394 180.089 C 128.066 179.435,127.403 178.031,126.921 176.969 C 126.182 175.339,125.200 174.078,125.200 174.757 M122.640 175.240 C 122.508 175.372,122.400 175.562,122.400 175.662 C 122.400 175.828,124.363 178.400,124.489 178.400 C 124.520 178.400,124.311 177.635,124.026 176.700 C 123.504 174.987,123.206 174.674,122.640 175.240 " stroke="none" fill="#fcfbfb" fill-rule="evenodd"></path><path id="path1" d="M196.598 59.837 C 188.996 62.643,185.312 64.303,182.558 66.161 C 181.711 66.732,180.979 67.200,180.932 67.200 C 180.884 67.200,180.857 66.367,180.873 65.350 L 180.900 63.500 180.355 63.437 C 179.903 63.385,179.424 63.728,177.555 65.446 C 173.815 68.881,173.444 69.085,171.519 68.753 C 167.920 68.133,163.544 70.805,161.668 74.767 C 160.728 76.754,160.699 76.763,156.713 76.408 C 152.078 75.995,151.746 76.215,140.793 86.949 C 134.963 92.663,134.869 92.780,133.830 95.641 C 132.521 99.249,131.620 100.366,125.389 106.110 C 116.939 113.899,114.830 118.313,112.678 132.700 C 112.382 134.680,111.902 137.695,111.611 139.400 L 111.081 142.500 112.917 146.200 C 115.809 152.028,117.216 155.902,118.293 161.007 C 119.124 164.939,118.917 165.776,117.175 165.542 L 116.340 165.430 116.460 168.265 C 116.627 172.201,116.556 172.000,122.332 184.973 C 125.422 191.913,128.150 198.634,129.223 201.954 C 129.874 203.967,129.902 204.012,130.622 204.206 C 132.161 204.620,132.975 205.932,133.601 209.007 C 134.920 215.476,138.179 219.991,142.709 221.622 C 143.698 221.979,144.543 222.073,147.700 222.183 C 152.013 222.333,153.017 222.631,155.100 224.381 C 157.213 226.157,160.749 227.400,163.688 227.400 L 165.312 227.400 170.856 230.293 C 173.905 231.884,177.337 233.774,178.482 234.493 C 180.735 235.907,181.176 236.024,181.824 235.376 C 182.413 234.787,182.637 235.185,182.545 236.658 C 182.474 237.808,182.477 237.815,182.987 237.711 C 189.970 236.293,203.015 236.348,208.400 237.820 C 209.721 238.181,210.036 238.201,211.042 237.989 C 213.758 237.417,216.687 238.070,219.965 239.977 C 222.333 241.354,223.961 241.289,223.727 239.826 C 223.548 238.706,224.437 238.280,228.931 237.331 C 231.651 236.757,231.930 236.836,233.285 238.560 C 233.806 239.223,234.517 239.904,234.866 240.074 L 235.500 240.382 235.619 238.703 C 235.812 235.980,236.259 235.600,239.263 235.600 L 241.100 235.600 241.030 234.589 C 240.894 232.626,241.008 232.419,244.035 229.145 C 246.938 226.004,248.243 224.777,249.517 223.990 L 250.254 223.534 251.618 225.017 L 252.983 226.500 252.987 225.700 C 252.993 224.597,252.428 223.456,251.209 222.110 C 249.869 220.630,249.925 220.463,252.000 219.760 C 254.069 219.060,255.338 219.006,256.306 219.577 C 256.974 219.971,257.000 219.973,256.805 219.609 C 256.011 218.126,257.176 217.224,260.033 217.108 C 262.621 217.003,263.427 216.305,263.759 213.878 C 263.914 212.748,264.026 212.561,265.914 210.293 C 271.056 204.116,273.855 199.806,277.304 192.753 C 279.135 189.007,281.672 183.006,281.498 182.831 C 281.106 182.439,277.443 186.185,275.493 188.974 C 274.088 190.982,273.498 191.378,272.586 190.923 C 272.134 190.697,271.958 190.681,271.895 190.860 C 271.849 190.992,271.579 191.843,271.297 192.750 C 270.663 194.783,270.601 194.798,270.746 192.880 L 270.861 191.360 267.183 194.219 C 255.011 203.680,238.637 215.240,236.179 216.108 C 234.843 216.579,233.791 216.114,233.057 214.729 C 232.878 214.390,232.772 214.437,231.833 215.270 C 229.854 217.029,228.670 216.891,229.040 214.946 C 229.120 214.522,229.054 214.498,227.693 214.450 C 226.139 214.396,225.934 214.506,225.377 215.685 C 224.990 216.503,224.770 216.502,224.236 215.678 C 223.658 214.787,223.660 214.785,223.370 216.712 C 223.154 218.147,223.115 218.238,222.962 217.660 C 222.665 216.531,221.973 216.763,221.098 218.286 C 220.925 218.587,220.762 218.440,219.948 217.249 C 218.464 215.078,218.190 214.907,218.577 216.394 C 218.942 217.793,218.716 218.348,218.033 217.730 C 217.670 217.401,217.653 217.429,217.539 218.531 C 217.456 219.339,217.316 219.730,217.061 219.872 C 216.862 219.982,216.187 220.560,215.561 221.156 L 214.421 222.240 211.770 222.518 C 208.641 222.845,206.053 223.270,204.051 223.786 C 202.640 224.150,202.564 224.150,201.151 223.791 C 196.000 222.480,188.368 221.239,182.100 220.693 C 175.418 220.110,169.212 218.125,165.632 215.424 L 165.178 215.081 165.939 214.591 C 166.772 214.053,167.482 212.847,167.278 212.316 C 167.162 212.013,167.110 212.021,166.755 212.402 C 166.274 212.919,165.714 213.139,163.934 213.514 L 162.560 213.803 159.030 210.443 C 157.088 208.595,153.475 205.205,151.000 202.909 C 142.480 195.008,133.995 186.354,132.263 183.800 C 131.333 182.430,129.989 179.634,128.608 176.200 C 127.298 172.945,126.203 170.358,126.075 170.216 C 126.033 170.170,125.779 170.338,125.510 170.590 C 124.766 171.290,124.122 171.027,123.481 169.763 C 122.475 167.777,123.402 166.145,125.039 167.021 C 125.427 167.228,125.445 167.200,125.335 166.571 C 124.645 162.646,123.581 154.129,123.677 153.300 C 123.748 152.685,124.188 151.491,124.821 150.200 L 125.850 148.100 127.114 136.719 C 129.877 111.824,132.375 107.202,153.600 87.709 C 155.753 85.732,156.810 84.952,159.300 83.504 C 160.400 82.864,162.920 81.375,164.900 80.194 C 180.091 71.136,185.571 69.287,198.000 69.022 C 205.618 68.859,205.833 68.736,205.970 64.472 L 206.042 62.244 205.154 62.344 C 204.096 62.464,203.477 62.183,201.771 60.808 C 201.111 60.276,200.150 59.666,199.634 59.452 L 198.696 59.062 196.598 59.837 M226.590 64.989 C 223.353 65.112,222.900 65.268,222.165 66.515 C 221.942 66.892,221.730 67.200,221.693 67.200 C 221.656 67.200,221.373 67.104,221.063 66.986 C 219.349 66.333,215.116 66.859,214.026 67.860 C 210.009 71.546,216.479 77.343,225.322 77.982 L 227.343 78.128 231.309 80.493 C 236.101 83.350,241.863 87.207,249.100 92.402 C 261.759 101.490,260.598 100.936,263.775 99.400 C 264.685 98.960,265.502 98.600,265.590 98.600 C 265.678 98.600,265.794 99.658,265.847 100.950 C 266.056 106.071,268.349 111.125,271.494 113.396 C 274.824 115.800,275.933 119.220,274.719 123.339 L 274.354 124.578 275.477 126.700 C 277.399 130.332,279.558 133.165,281.491 134.593 L 282.543 135.370 282.649 136.695 C 282.818 138.800,283.551 139.313,284.740 138.161 C 285.547 137.379,285.542 137.333,285.074 140.967 C 284.722 143.695,284.640 149.135,284.936 150.079 C 285.079 150.534,285.191 149.934,285.465 147.255 C 286.022 141.818,286.866 137.456,288.025 134.027 C 288.340 133.094,288.561 132.294,288.516 132.249 C 288.306 132.040,287.562 132.693,287.087 133.504 C 286.601 134.334,285.741 135.200,285.403 135.200 C 285.325 135.200,285.198 133.558,285.121 131.550 C 284.951 127.113,284.623 123.599,283.710 116.440 L 283.014 110.979 273.914 96.423 C 263.334 79.497,262.884 78.914,256.970 74.494 C 249.127 68.631,237.277 64.373,230.100 64.840 C 229.770 64.861,228.190 64.929,226.590 64.989 M146.600 150.000 L 146.600 181.600 151.700 181.600 L 156.800 181.600 156.800 168.797 L 156.800 155.994 163.136 156.047 L 169.473 156.100 175.831 168.850 L 182.190 181.600 187.795 181.600 C 190.878 181.600,193.400 181.557,193.400 181.505 C 193.400 181.452,190.380 175.535,186.689 168.355 C 178.868 153.141,179.666 155.036,180.900 154.606 C 188.571 151.931,192.657 145.152,192.133 135.970 C 191.575 126.190,186.162 119.845,177.327 118.616 C 176.327 118.477,170.556 118.400,161.186 118.400 L 146.600 118.400 146.600 150.000 M206.000 149.998 L 206.000 181.613 222.950 181.556 L 239.900 181.499 241.300 181.030 C 248.308 178.679,252.710 172.529,253.132 164.500 C 253.563 156.287,248.468 149.628,241.167 148.865 C 239.643 148.706,239.481 148.123,240.902 147.910 C 253.481 146.024,254.641 125.747,242.494 120.084 C 238.994 118.452,239.853 118.521,221.950 118.447 L 206.000 118.382 206.000 149.998 M235.330 127.464 C 239.024 128.682,240.100 130.677,240.100 136.305 L 240.100 139.910 239.446 141.238 C 237.685 144.813,236.234 145.196,224.450 145.198 L 216.200 145.200 216.200 136.233 C 216.200 131.302,216.266 127.200,216.348 127.119 C 216.683 126.784,234.235 127.103,235.330 127.464 M175.000 127.413 C 180.008 128.224,181.473 130.623,181.364 137.839 L 181.300 142.111 180.643 143.445 C 178.801 147.183,177.030 147.639,164.700 147.554 L 156.900 147.500 156.848 137.350 L 156.796 127.200 165.248 127.202 C 170.195 127.202,174.239 127.290,175.000 127.413 M236.693 153.907 C 240.906 155.004,242.264 157.119,242.366 162.744 C 242.471 168.581,241.518 170.627,237.967 172.193 C 236.366 172.898,234.349 173.018,225.100 172.957 L 216.300 172.900 216.248 163.250 L 216.196 153.600 225.856 153.600 C 233.890 153.600,235.714 153.652,236.693 153.907 M125.894 174.922 C 126.290 175.318,126.947 176.607,127.794 178.649 C 128.147 179.501,128.651 180.513,128.912 180.899 C 129.511 181.781,129.167 181.823,128.037 181.004 C 126.936 180.206,126.660 179.733,126.419 178.230 C 126.303 177.504,125.955 176.499,125.608 175.883 C 124.848 174.536,124.999 174.028,125.894 174.922 M123.538 175.050 C 123.715 175.324,124.794 178.800,124.702 178.800 C 124.635 178.800,122.534 176.199,122.346 175.883 C 122.009 175.316,123.181 174.498,123.538 175.050 " stroke="none" fill="#ec3d3c" fill-rule="evenodd"></path><path id="path2" d="M225.354 64.945 C 225.713 64.989,226.253 64.989,226.554 64.943 C 226.854 64.897,226.560 64.861,225.900 64.862 C 225.240 64.863,224.994 64.900,225.354 64.945 M194.650 69.138 C 194.843 69.188,195.158 69.188,195.350 69.138 C 195.543 69.088,195.385 69.046,195.000 69.046 C 194.615 69.046,194.458 69.088,194.650 69.138 M163.589 71.750 L 162.900 72.500 163.650 71.811 C 164.348 71.169,164.492 71.000,164.339 71.000 C 164.306 71.000,163.968 71.338,163.589 71.750 M158.650 76.538 C 158.843 76.588,159.158 76.588,159.350 76.538 C 159.543 76.488,159.385 76.446,159.000 76.446 C 158.615 76.446,158.458 76.488,158.650 76.538 M130.087 101.450 L 129.500 102.100 130.150 101.513 C 130.508 101.190,130.800 100.897,130.800 100.863 C 130.800 100.708,130.635 100.844,130.087 101.450 M153.765 118.350 C 157.760 118.380,164.240 118.380,168.165 118.350 C 172.089 118.320,168.820 118.295,160.900 118.295 C 152.980 118.295,149.769 118.320,153.765 118.350 M213.235 118.350 C 217.270 118.380,223.930 118.380,228.035 118.350 C 232.141 118.320,228.840 118.295,220.700 118.295 C 212.560 118.295,209.201 118.320,213.235 118.350 M275.050 120.100 C 275.053 120.540,275.094 120.696,275.141 120.448 C 275.189 120.199,275.187 119.839,275.137 119.648 C 275.087 119.456,275.048 119.660,275.050 120.100 M216.292 136.100 C 216.292 141.050,216.318 143.046,216.350 140.536 C 216.382 138.026,216.382 133.976,216.350 131.536 C 216.318 129.096,216.292 131.150,216.292 136.100 M247.189 144.950 L 246.500 145.700 247.250 145.011 C 247.948 144.369,248.092 144.200,247.939 144.200 C 247.906 144.200,247.568 144.537,247.189 144.950 M216.292 163.300 C 216.293 168.580,216.318 170.711,216.350 168.036 C 216.381 165.361,216.381 161.041,216.350 158.436 C 216.318 155.831,216.292 158.020,216.292 163.300 M159.100 156.142 C 164.624 156.283,169.554 156.287,169.469 156.150 C 169.418 156.067,166.569 156.019,163.138 156.043 C 159.707 156.066,157.890 156.111,159.100 156.142 M149.038 181.749 C 150.434 181.784,152.774 181.784,154.238 181.750 C 155.702 181.715,154.560 181.687,151.700 181.687 C 148.840 181.687,147.642 181.715,149.038 181.749 M185.062 181.750 C 186.691 181.783,189.301 181.783,190.862 181.749 C 192.423 181.716,191.090 181.688,187.900 181.688 C 184.710 181.688,183.433 181.716,185.062 181.750 M213.950 181.750 C 218.378 181.780,225.623 181.780,230.050 181.750 C 234.478 181.720,230.855 181.695,222.000 181.695 C 213.145 181.695,209.523 181.720,213.950 181.750 M144.000 196.263 C 144.000 196.297,144.292 196.590,144.650 196.913 L 145.300 197.500 144.713 196.850 C 144.165 196.244,144.000 196.108,144.000 196.263 M156.400 207.863 C 156.400 207.897,156.692 208.190,157.050 208.513 L 157.700 209.100 157.113 208.450 C 156.565 207.844,156.400 207.708,156.400 207.863 M162.044 213.307 C 162.343 213.621,162.624 213.839,162.668 213.789 C 162.711 213.740,162.467 213.483,162.124 213.217 L 161.500 212.734 162.044 213.307 M215.400 221.100 C 214.914 221.595,214.562 222.000,214.617 222.000 C 214.672 222.000,215.114 221.595,215.600 221.100 C 216.086 220.605,216.438 220.200,216.383 220.200 C 216.328 220.200,215.886 220.605,215.400 221.100 M250.600 221.463 C 250.600 221.497,250.893 221.790,251.250 222.113 L 251.900 222.700 251.313 222.050 C 250.765 221.444,250.600 221.308,250.600 221.463 M146.050 222.338 C 146.243 222.388,146.558 222.388,146.750 222.338 C 146.942 222.288,146.785 222.246,146.400 222.246 C 146.015 222.246,145.858 222.288,146.050 222.338 M194.352 236.741 C 194.601 236.789,194.961 236.787,195.152 236.737 C 195.344 236.687,195.140 236.648,194.700 236.650 C 194.260 236.653,194.104 236.694,194.352 236.741 " stroke="none" fill="#f6b2ae" fill-rule="evenodd"></path><path id="path3" d="M178.087 64.850 L 177.500 65.500 178.150 64.913 C 178.508 64.590,178.800 64.297,178.800 64.263 C 178.800 64.108,178.635 64.244,178.087 64.850 M228.053 64.944 C 228.357 64.989,228.807 64.988,229.053 64.941 C 229.299 64.893,229.050 64.856,228.500 64.857 C 227.950 64.859,227.749 64.898,228.053 64.944 M232.050 64.938 C 232.243 64.988,232.558 64.988,232.750 64.938 C 232.943 64.888,232.785 64.846,232.400 64.846 C 232.015 64.846,231.857 64.888,232.050 64.938 M225.952 78.141 C 226.201 78.189,226.561 78.187,226.752 78.137 C 226.944 78.087,226.740 78.048,226.300 78.050 C 225.860 78.053,225.704 78.094,225.952 78.141 M144.091 83.650 L 143.300 84.500 144.150 83.709 C 144.940 82.974,145.092 82.800,144.941 82.800 C 144.908 82.800,144.525 83.183,144.091 83.650 M144.596 96.150 L 142.900 97.900 144.650 96.204 C 145.613 95.272,146.400 94.484,146.400 94.454 C 146.400 94.309,146.170 94.525,144.596 96.150 M265.654 100.400 C 265.654 100.895,265.693 101.098,265.741 100.850 C 265.789 100.603,265.789 100.198,265.741 99.950 C 265.693 99.703,265.654 99.905,265.654 100.400 M260.650 100.338 C 260.843 100.388,261.157 100.388,261.350 100.338 C 261.543 100.288,261.385 100.246,261.000 100.246 C 260.615 100.246,260.457 100.288,260.650 100.338 M220.563 127.150 C 222.908 127.182,226.688 127.182,228.963 127.150 C 231.239 127.118,229.320 127.091,224.700 127.092 C 220.080 127.092,218.219 127.118,220.563 127.150 M161.164 127.350 C 163.619 127.382,167.579 127.382,169.964 127.350 C 172.349 127.318,170.340 127.292,165.500 127.292 C 160.660 127.292,158.709 127.318,161.164 127.350 M285.046 130.200 C 285.046 130.585,285.088 130.743,285.138 130.550 C 285.188 130.358,285.188 130.042,285.138 129.850 C 285.088 129.657,285.046 129.815,285.046 130.200 M250.846 133.600 C 250.846 133.985,250.888 134.143,250.938 133.950 C 250.988 133.758,250.988 133.442,250.938 133.250 C 250.888 133.058,250.846 133.215,250.846 133.600 M220.464 145.150 C 222.863 145.182,226.733 145.182,229.064 145.150 C 231.394 145.118,229.430 145.092,224.700 145.092 C 219.970 145.092,218.064 145.118,220.464 145.150 M161.050 147.550 C 163.333 147.582,167.068 147.582,169.350 147.550 C 171.633 147.518,169.765 147.491,165.200 147.491 C 160.635 147.491,158.768 147.518,161.050 147.550 M220.950 172.950 C 223.508 172.981,227.693 172.981,230.250 172.950 C 232.808 172.918,230.715 172.892,225.600 172.892 C 220.485 172.892,218.393 172.918,220.950 172.950 M247.789 177.150 L 247.100 177.900 247.850 177.211 C 248.548 176.569,248.692 176.400,248.539 176.400 C 248.506 176.400,248.168 176.738,247.789 177.150 M157.600 209.063 C 157.600 209.097,157.893 209.390,158.250 209.713 L 158.900 210.300 158.313 209.650 C 157.765 209.044,157.600 208.908,157.600 209.063 M163.550 227.541 C 163.798 227.589,164.203 227.589,164.450 227.541 C 164.697 227.493,164.495 227.454,164.000 227.454 C 163.505 227.454,163.303 227.493,163.550 227.541 M182.460 236.400 C 182.460 237.005,182.497 237.253,182.543 236.950 C 182.589 236.648,182.589 236.153,182.543 235.850 C 182.497 235.548,182.460 235.795,182.460 236.400 M235.667 239.000 C 235.667 239.825,235.703 240.163,235.746 239.750 C 235.789 239.338,235.789 238.663,235.746 238.250 C 235.703 237.838,235.667 238.175,235.667 239.000 " stroke="none" fill="#f49494" fill-rule="evenodd"></path><path id="path4" d="" stroke="none" fill="#f49c94" fill-rule="evenodd"></path></g></svg>