<?xml version="1.0" standalone="no"?>
  <svg version="1.1"
      baseProfile="full"
     width="889px"
      height="535px"
     
      xmlns="http://www.w3.org/2000/svg"
      >
      <g xmlns="http://www.w3.org/2000/svg" xmlns:xlink="http://www.w3.org/1999/xlink">
      <g transform="rotate(0 444.7049996948242 267.6199996185303)"><svg id="1690463806376" opacity="1" fill="rgb(10, 20, 30)" viewBox="3.5999999046325684 -57.599998474121094 67.38999938964844 55.79999923706055" width="67.38999938964844" preserveAspectRatio="none" height="55.79999923706055" x="411.01" y="239.72"><path id="textPath" d="M34.63-1.80L34.63-28.58C34.63-32.54 31.39-35.78 27.43-35.78C31.39-35.78 34.63-39.02 34.63-42.98L34.63-48.17C34.63-50.47 33.62-52.49 31.82-53.86C28.73-56.30 25.49-57.60 21.02-57.60C16.56-57.60 12.10-55.87 8.71-52.49C5.26-49.03 3.60-44.50 3.60-39.96C3.60-35.35 5.40-30.96 8.71-27.72L20.23-16.20L20.23-26.35L14.40-32.18L27.43-32.18L27.43-9.00ZM10.80-39.38C10.66-42.26 11.66-45.22 13.82-47.38C15.84-49.39 18.43-50.40 21.10-50.40C23.33-50.40 25.56-49.68 27.43-48.31L27.43-39.38ZM70.99-1.80L70.99-28.58C70.99-32.54 67.82-35.78 63.79-35.78C67.75-35.78 70.99-39.02 70.99-42.98L70.99-48.17C70.99-50.47 70.06-52.49 68.26-53.86C65.16-56.30 61.85-57.60 57.38-57.60C52.99-57.60 48.53-55.87 45.14-52.49C41.76-49.10 40.03-44.64 40.03-40.18C40.03-35.50 41.76-31.03 45.14-27.72ZM47.23-39.38C47.02-42.26 48.02-45.22 50.18-47.38C52.20-49.39 54.86-50.40 57.53-50.40C59.76-50.40 61.92-49.68 63.79-48.31L63.79-39.38ZM63.79-19.15C59.33-23.69 55.30-27.65 50.76-32.18L63.79-32.18Z" style="pointer-events: bounding-box; cursor: move;"></path></svg></g><g transform="rotate(0 444.5 267.5012484741211)"><svg xmlns:dc="http://purl.org/dc/elements/1.1/" xmlns:cc="http://creativecommons.org/ns#" xmlns:rdf="http://www.w3.org/1999/02/22-rdf-syntax-ns#" xmlns:svg="http://www.w3.org/2000/svg" xmlns="http://www.w3.org/2000/svg" xmlns:sodipodi="http://sodipodi.sourceforge.net/DTD/sodipodi-0.dtd" xmlns:inkscape="http://www.inkscape.org/namespaces/inkscape" version="1.1" id="Layer_1" x="319.5" y="162.62" viewBox="108.35000610351562 176.5500030517578 783.2999877929688 646.9000244140625" width="250" class="withFill injected-svg" height="209.7624969482422" style="enable-background:new 0 0 1000 1000;" xml:space="preserve" data-src="/static/media/146.svg" xmlns:xlink="http://www.w3.org/1999/xlink" fill="rgb(10, 20, 30)" opacity="1" preserveAspectRatio="none"><style type="text/css" id="style3">
	.st0{fill:#231F20;}
	.st1{fill:#B9921D;}
</style><switch id="switch5" transform="translate(-42.95,35.75)"><g id="g7"><g id="g9"><g id="g11"><g id="g13"><path class="st0" d="m 779.8,696.9 -465.2,0 0,-465.2 465.2,0 0,465.2 z m -444.4,-20.8 423.6,0 0,-423.6 -423.6,0 0,423.6 z" id="path15-4" inkscape:connector-curvature="0" style="fill: rgb(10, 20, 30);"></path></g></g><g id="g17"><polygon class="st1" points="568,252.5 759,443.5 759,425.1 586.4,252.5 " id="polygon19" style="fill:#b9921d"></polygon><polygon class="st1" points="798.1,464.3 779.8,445.9 779.8,482.6 " id="polygon21" style="fill:#b9921d"></polygon><polygon class="st1" points="759,503.4 759,485 567.9,676.2 586.3,676.2 " id="polygon23" style="fill:#b9921d"></polygon><polygon class="st1" points="169.6,464.3 474.7,159.2 547,231.6 565.4,231.6 474.7,140.8 151.3,464.3 474.7,787.7 565.5,697 547.1,697 474.7,769.3 " id="polygon25" style="fill:#b9921d"></polygon></g><g id="g27"><polygon class="st1" points="306.1,464.3 611.2,159.2 683.7,231.7 702,231.7 611.2,140.8 287.7,464.3 611.2,787.7 702,696.9 683.6,696.9 611.2,769.3 " id="polygon29" style="fill:#b9921d"></polygon><polygon class="st1" points="759,639.9 759,621.5 704.4,676.1 722.8,676.1 " id="polygon31" style="fill:#b9921d"></polygon><polygon class="st1" points="780.5,310.1 780.5,328.5 916.2,464.3 780.5,600.1 780.5,618.4 934.6,464.3 " id="polygon33" style="fill:#b9921d"></polygon><polygon class="st1" points="704.5,252.5 759,307.1 759,288.7 722.9,252.5 " id="polygon35" style="fill:#b9921d"></polygon></g></g></g></switch></svg></g>
      </g>
  </svg>